<?xml version="1.0" encoding="iso-8859-1"?>
<!-- Uploaded to: SVG Repo, www.svgrepo.com, Generator: SVG Repo Mixer Tools -->
<svg fill="#000000" version="1.1" id="Layer_1" xmlns="http://www.w3.org/2000/svg" xmlns:xlink="http://www.w3.org/1999/xlink" 
	 viewBox="0 0 496 496" xml:space="preserve">
<g>
	<g>
		<g>
			<path d="M296,272v-4.528c0-9-2.52-17.8-7.296-25.44L248,176.904l-40.712,65.128c-4.768,7.64-7.288,16.44-7.288,25.44V272
				c0,26.472,21.528,48,48,48S296,298.472,296,272z M216,272v-4.528c0-6,1.68-11.864,4.856-16.96L248,207.096l27.136,43.416
				c3.184,5.096,4.864,10.96,4.864,16.96V272c0,17.648-14.352,32-32,32S216,289.648,216,272z"/>
			<path d="M248,0c-44.112,0-80,35.888-80,80s35.888,80,80,80s80-35.888,80-80S292.112,0,248,0z M248,144c-35.288,0-64-28.712-64-64
				s28.712-64,64-64c35.288,0,64,28.712,64,64S283.288,144,248,144z"/>
			<path d="M240,56h16c4.416,0,8,3.592,8,8h16c0-13.232-10.768-24-24-24V24h-16v16c-13.232,0-24,10.768-24,24s10.768,24,24,24h16
				c4.416,0,8,3.592,8,8s-3.584,8-8,8h-16c-4.416,0-8-3.592-8-8h-16c0,13.232,10.768,24,24,24v16h16v-16c13.232,0,24-10.768,24-24
				s-10.768-24-24-24h-16c-4.416,0-8-3.592-8-8S235.584,56,240,56z"/>
			<path d="M160,248c0-44.112-35.888-80-80-80S0,203.888,0,248s35.888,80,80,80S160,292.112,160,248z M16,248
				c0-35.288,28.712-64,64-64s64,28.712,64,64c0,35.288-28.712,64-64,64S16,283.288,16,248z"/>
			<path d="M248,336c-44.112,0-80,35.888-80,80s35.888,80,80,80s80-35.888,80-80S292.112,336,248,336z M248,480
				c-35.288,0-64-28.712-64-64c0-35.288,28.712-64,64-64c35.288,0,64,28.712,64,64C312,451.288,283.288,480,248,480z"/>
			<path d="M416,168c-44.112,0-80,35.888-80,80s35.888,80,80,80s80-35.888,80-80S460.112,168,416,168z M416,312
				c-35.288,0-64-28.712-64-64c0-35.288,28.712-64,64-64c35.288,0,64,28.712,64,64C480,283.288,451.288,312,416,312z"/>
			<path d="M104,296v-16h-8c-8.04,0-15.312-3.08-20.944-8H88v-16H65.136c-0.672-2.576-1.136-5.224-1.136-8s0.464-5.424,1.136-8H88
				v-16H75.056c5.624-4.92,12.896-8,20.944-8h8v-16h-8c-17.72,0-33.192,9.68-41.504,24H40v16h8.72c-0.44,2.608-0.72,5.272-0.72,8
				c0,2.728,0.28,5.392,0.72,8H40v16h14.496C62.808,286.32,78.28,296,96,296H104z"/>
			<path d="M400.808,232H384v16h16v8c0,8.824-7.176,16-16,16v16h56v-16h-28.296c2.736-4.712,4.296-10.176,4.296-16v-8h24v-16
				h-22.528c3.312-9.288,12.112-16,22.528-16v-16C420.688,200,404.528,213.768,400.808,232z"/>
			<polygon points="273.344,371.56 248,409.576 222.656,371.56 209.344,380.44 233.056,416 216,416 216,432 240,432 240,440 
				216,440 216,456 240,456 240,472 256,472 256,456 280,456 280,440 256,440 256,432 280,432 280,416 262.944,416 286.656,380.44 
							"/>
			<path d="M331.864,402.768l7.64,14.064c32.784-17.808,59.52-44.544,77.328-77.328l-14.064-7.632
				C386.448,361.928,361.928,386.448,331.864,402.768z"/>
			<path d="M93.224,331.872l-14.064,7.632c17.808,32.784,44.544,59.52,77.328,77.328l7.64-14.064
				C134.072,386.448,109.552,361.928,93.224,331.872z"/>
			<path d="M79.168,156.496l14.064,7.632c16.328-30.056,40.84-54.576,70.904-70.896l-7.64-14.064
				C123.712,96.976,96.968,123.712,79.168,156.496z"/>
			<path d="M402.776,164.128l14.064-7.632c-17.808-32.784-44.544-59.52-77.328-77.328l-7.64,14.064
				C361.928,109.552,386.448,134.072,402.776,164.128z"/>
			<rect x="144" y="144" width="16" height="16"/>
			<rect x="176" y="176" width="16" height="16"/>
			<rect x="304" y="304" width="16" height="16"/>
			<rect x="336" y="336" width="16" height="16"/>
			<rect x="144" y="336" width="16" height="16"/>
			<rect x="176" y="304" width="16" height="16"/>
			<rect x="304" y="176" width="16" height="16"/>
			<rect x="336" y="144" width="16" height="16"/>
		</g>
	</g>
</g>
</svg>